<svg xmlns="http://www.w3.org/2000/svg" width="1100" height="660" viewBox="0 0 1100 660"><defs><linearGradient id="keycap" gradientUnits="userSpaceOnUse" x1="3" y1="4" x2="20" y2="22"><stop stop-color="#B2FFE0"/><stop offset=".5" stop-color="#5DE4D6"/><stop offset="1" stop-color="#73A9FF"/></linearGradient></defs><rect width="1100" height="660" rx="24" fill="#0B121A"/><g font-family="sans-serif"><text x="64" y="74" fill="#EFFAF6" font-size="32" font-weight="600">Omakey</text><text x="64" y="105" fill="#8FABB7" font-size="15">The wireless keycap</text></g><svg x="64" y="160" width="280" height="280" viewBox="18 18 72 72"><rect x="18" y="18" width="72" height="72" rx="17" fill="#101F2C"/><g transform="translate(21.5 21.5) scale(2.6 2.6)"><g transform="translate(0 1.25) scale(1 1)"><path d="M11.5,4 H7 C4.79,4 3,5.79 3,8 V17 C3,19.21 4.79,21 7,21 H16 C18.21,21 20,19.21 20,17 V13" fill="none" stroke="#245371" stroke-width="2.6" stroke-linecap="round" stroke-linejoin="round"/></g><path d="M11.5,4 H7 C4.79,4 3,5.79 3,8 V17 C3,19.21 4.79,21 7,21 H16 C18.21,21 20,19.21 20,17 V13" fill="none" stroke="url(#keycap)" stroke-width="2.6" stroke-linecap="round" stroke-linejoin="round"/><path d="M15,11.5 V14.5 H8 M10.5,12 L8,14.5 L10.5,17" fill="none" stroke="#F0FFF9" stroke-width="2" stroke-linecap="round" stroke-linejoin="round"/><path d="M16,3 C19.31,3 22,5.69 22,9 M16,7 C17.1,7 18,7.9 18,9" fill="none" stroke="#B2FFE0" stroke-width="2" stroke-linecap="round" stroke-linejoin="round"/></g></svg><text x="204" y="480" text-anchor="middle" font-family="sans-serif" font-size="12" letter-spacing="2" fill="#8FABB7">ANDROID</text><svg x="408" y="160" width="280" height="280" viewBox="18 18 72 72"><circle cx="54" cy="54" r="36" fill="#101F2C"/><g transform="translate(21.5 21.5) scale(2.6 2.6)"><g transform="translate(0 1.25) scale(1 1)"><path d="M11.5,4 H7 C4.79,4 3,5.79 3,8 V17 C3,19.21 4.79,21 7,21 H16 C18.21,21 20,19.21 20,17 V13" fill="none" stroke="#245371" stroke-width="2.6" stroke-linecap="round" stroke-linejoin="round"/></g><path d="M11.5,4 H7 C4.79,4 3,5.79 3,8 V17 C3,19.21 4.79,21 7,21 H16 C18.21,21 20,19.21 20,17 V13" fill="none" stroke="url(#keycap)" stroke-width="2.6" stroke-linecap="round" stroke-linejoin="round"/><path d="M15,11.5 V14.5 H8 M10.5,12 L8,14.5 L10.5,17" fill="none" stroke="#F0FFF9" stroke-width="2" stroke-linecap="round" stroke-linejoin="round"/><path d="M16,3 C19.31,3 22,5.69 22,9 M16,7 C17.1,7 18,7.9 18,9" fill="none" stroke="#B2FFE0" stroke-width="2" stroke-linecap="round" stroke-linejoin="round"/></g></svg><text x="548" y="480" text-anchor="middle" font-family="sans-serif" font-size="12" letter-spacing="2" fill="#8FABB7">ROUND</text><svg x="752" y="160" width="280" height="280" viewBox="18 18 72 72"><circle cx="54" cy="54" r="36" fill="#CCEADD"/><g transform="translate(21.5 21.5) scale(2.6 2.6)"><path d="M11.5,4 H7 C4.79,4 3,5.79 3,8 V17 C3,19.21 4.79,21 7,21 H16 C18.21,21 20,19.21 20,17 V13" fill="none" stroke="#204D48" stroke-width="2" stroke-linecap="round" stroke-linejoin="round"/><path d="M15,11.5 V14.5 H8 M10.5,12 L8,14.5 L10.5,17" fill="none" stroke="#204D48" stroke-width="2" stroke-linecap="round" stroke-linejoin="round"/><path d="M16,3 C19.31,3 22,5.69 22,9 M16,7 C17.1,7 18,7.9 18,9" fill="none" stroke="#204D48" stroke-width="2" stroke-linecap="round" stroke-linejoin="round"/></g></svg><text x="892" y="480" text-anchor="middle" font-family="sans-serif" font-size="12" letter-spacing="2" fill="#8FABB7">THEMED</text><rect x="64" y="536" width="968" height="76" rx="16" fill="#172330"/><svg x="94" y="558" width="28" height="28" viewBox="0 0 24 24" color="#DAE5EE" opacity="1"><path d="M11.5,4 H7 C4.79,4 3,5.79 3,8 V17 C3,19.21 4.79,21 7,21 H16 C18.21,21 20,19.21 20,17 V13" fill="none" stroke="currentColor" stroke-width="2" stroke-linecap="round" stroke-linejoin="round"/><path d="M15,11.5 V14.5 H8 M10.5,12 L8,14.5 L10.5,17" fill="none" stroke="currentColor" stroke-width="2" stroke-linecap="round" stroke-linejoin="round"/><path d="M16,3 C19.31,3 22,5.69 22,9 M16,7 C17.1,7 18,7.9 18,9" fill="none" stroke="currentColor" stroke-width="2" stroke-linecap="round" stroke-linejoin="round"/></svg><text x="138" y="578" font-family="sans-serif" font-size="15" fill="#B1C1CA">Ready</text><svg x="400" y="558" width="28" height="28" viewBox="0 0 24 24" color="#8CE9C1" opacity="1"><path d="M11.5,4 H7 C4.79,4 3,5.79 3,8 V17 C3,19.21 4.79,21 7,21 H16 C18.21,21 20,19.21 20,17 V13" fill="none" stroke="currentColor" stroke-width="2" stroke-linecap="round" stroke-linejoin="round"/><path d="M15,11.5 V14.5 H8 M10.5,12 L8,14.5 L10.5,17" fill="none" stroke="currentColor" stroke-width="2" stroke-linecap="round" stroke-linejoin="round"/><path d="M16,3 C19.31,3 22,5.69 22,9 M16,7 C17.1,7 18,7.9 18,9" fill="none" stroke="currentColor" stroke-width="2" stroke-linecap="round" stroke-linejoin="round"/></svg><text x="444" y="578" font-family="sans-serif" font-size="15" fill="#B1C1CA">Connected</text><svg x="736" y="558" width="28" height="28" viewBox="0 0 24 24" color="#DAE5EE" opacity="0.45"><path d="M11.5,4 H7 C4.79,4 3,5.79 3,8 V17 C3,19.21 4.79,21 7,21 H16 C18.21,21 20,19.21 20,17 V13" fill="none" stroke="currentColor" stroke-width="2" stroke-linecap="round" stroke-linejoin="round"/><path d="M15,11.5 V14.5 H8 M10.5,12 L8,14.5 L10.5,17" fill="none" stroke="currentColor" stroke-width="2" stroke-linecap="round" stroke-linejoin="round"/><path d="M16,3 C19.31,3 22,5.69 22,9 M16,7 C17.1,7 18,7.9 18,9" fill="none" stroke="currentColor" stroke-width="2" stroke-linecap="round" stroke-linejoin="round"/></svg><text x="780" y="578" font-family="sans-serif" font-size="15" fill="#B1C1CA">Stopped</text></svg>
